<?xml version="1.0" standalone="no"?>
<!DOCTYPE svg PUBLIC "-//W3C//DTD SVG 20010904//EN"
 "http://www.w3.org/TR/2001/REC-SVG-20010904/DTD/svg10.dtd">
<svg version="1.0" xmlns="http://www.w3.org/2000/svg"
 width="512.000000pt" height="512.000000pt" viewBox="0 0 512.000000 512.000000"
 preserveAspectRatio="xMidYMid meet">
<metadata>
Created by potrace 1.14, written by Peter Selinger 2001-2017
</metadata>
<g transform="translate(0.000000,512.000000) scale(0.100000,-0.100000)"
fill="#000000" stroke="none">
<path d="M1578 4931 c-91 -36 -169 -69 -173 -73 -4 -3 59 -175 140 -382 81
-206 144 -380 140 -386 -3 -5 -13 -10 -21 -10 -12 0 -13 -8 -9 -34 6 -30 4
-34 -19 -40 -23 -6 -25 -9 -15 -28 10 -18 8 -24 -7 -35 -10 -7 -22 -13 -26
-13 -5 0 -4 -9 2 -20 14 -27 9 -34 -44 -54 -42 -16 -44 -19 -36 -42 8 -21 6
-26 -15 -36 -14 -6 -25 -14 -24 -17 0 -3 85 -220 188 -481 l187 -475 29 3 c28
2 31 -1 53 -60 13 -35 28 -72 32 -83 13 -28 131 -328 134 -340 2 -5 8 -21 13
-35 6 -14 27 -68 47 -120 20 -52 41 -104 46 -115 5 -11 35 -90 68 -175 79
-205 75 -194 77 -200 0 -3 11 -27 23 -54 12 -27 22 -53 22 -58 0 -5 7 -23 16
-40 15 -29 15 -32 -1 -44 -10 -7 -22 -15 -26 -16 -5 -2 80 -230 189 -508 l198
-505 31 3 c24 2 32 -2 36 -19 5 -18 11 -21 36 -16 27 6 32 3 37 -18 5 -21 9
-23 31 -14 14 5 27 8 27 7 1 -2 6 -13 12 -25 9 -21 10 -21 129 26 66 26 215
85 332 131 208 81 211 83 202 107 -12 31 -11 33 4 33 28 0 38 16 28 42 -9 23
-7 27 16 32 14 4 23 12 20 19 -18 45 -19 47 -4 47 38 0 35 25 -22 170 -32 80
-108 276 -171 435 -62 160 -125 322 -141 360 -17 45 -32 69 -41 66 -42 -12
-31 -31 -147 269 -29 74 -58 149 -66 165 -8 17 -27 67 -44 110 -16 44 -55 143
-86 220 -31 77 -58 147 -60 155 -3 14 -63 167 -84 215 -5 11 -17 40 -26 65
-10 25 -19 51 -22 58 -3 6 1 12 8 12 43 1 40 15 -75 306 -62 159 -151 387
-197 507 l-84 218 -28 -5 c-22 -5 -30 -1 -39 19 l-11 24 -49 -20 c-27 -10 -50
-19 -52 -19 -2 0 -7 12 -10 26 -5 17 -12 24 -21 20 -8 -3 -22 -9 -30 -12 -9
-4 -16 3 -21 21 -5 19 -11 24 -23 20 -28 -11 -33 -10 -44 10 -7 11 -13 21 -13
23 -1 1 -12 -2 -26 -7 -28 -11 -15 -35 -118 229 -96 247 -109 282 -120 305 -5
11 -25 63 -45 115 -20 52 -39 98 -43 101 -4 3 -82 -24 -174 -60z"/>
</g>
</svg>
